<svg width="400" height="300" viewBox="0 0 400 300" fill="none" xmlns="http://www.w3.org/2000/svg">
  <rect x="0" y="0" width="400" height="300" fill="#1D283A" rx="20" />
  <g transform="translate(50, 20)">
    <rect x="10" y="20" width="280" height="180" rx="15" fill="#3B82F6"/>
    <path d="M150 70 C120 70 110 90 110 110 C110 130 120 150 150 150 C180 150 190 130 190 110 C190 90 180 70 150 70 Z" fill="#A7C7E7"/>
    <path d="M160 80 C150 80 145 90 145 100 C145 110 150 120 160 120 C170 120 175 110 175 100 C175 90 170 80 160 80 Z" fill="#A7C7E7" transform="rotate(15, 160, 80)"/>
    <path d="M140 80 C130 80 125 90 125 100 C125 110 130 120 140 120 C150 120 155 110 155 100 C155 90 150 80 140 80 Z" fill="#A7C7E7" transform="rotate(-15, 140, 80)"/>

    <rect x="130" y="200" width="40" height="40" fill="#A7C7E7" />
    <rect x="100" y="240" width="100" height="10" rx="5" fill="#A7C7E7" />
  </g>
</svg>