<svg width="100" height="100" viewBox="0 0 100 100" fill="none" xmlns="http://www.w3.org/2000/svg">
<rect x="15" y="20" width="70" height="60" rx="5" fill="#B0BEC5"/>
<rect x="20" y="25" width="60" height="15" rx="3" fill="#DCE0E3"/>
<rect x="20" y="45" width="60" height="15" rx="3" fill="#DCE0E3"/>
<rect x="20" y="65" width="60" height="15" rx="3" fill="#DCE0E3"/>
<rect x="45" y="28" width="10" height="5" rx="1" fill="#78909C"/>
<rect x="45" y="48" width="10" height="5" rx="1" fill="#78909C"/>
<rect x="45" y="68" width="10" height="5" rx="1" fill="#78909C"/>
<path d="M25 22 L35 15 L45 22" fill="#E53935"/>
<path d="M35 15 L45 22 L55 15" fill="#42A5F5"/>
<path d="M45 22 L55 15 L65 22" fill="#FFA726"/>
<path d="M55 15 L65 22 L75 15" fill="#66BB6A"/>
</svg>
